<svg width="10" height="9" viewBox="0 0 10 9" fill="none" xmlns="http://www.w3.org/2000/svg">
<path d="M4.82371 0.422652C4.88535 0.232927 5.15376 0.232927 5.21541 0.422653L6.08294 3.09265C6.11051 3.1775 6.18958 3.23494 6.27879 3.23494H9.08619C9.28568 3.23494 9.36862 3.49022 9.20723 3.60747L6.936 5.25762C6.86382 5.31006 6.83362 5.40301 6.86119 5.48786L7.72873 8.15785C7.79037 8.34758 7.57322 8.50535 7.41183 8.38809L5.1406 6.73794C5.06842 6.6855 4.97069 6.6855 4.89851 6.73794L2.62728 8.38809C2.46589 8.50535 2.24874 8.34758 2.31039 8.15785L3.17792 5.48786C3.20549 5.40301 3.17529 5.31006 3.10311 5.25762L0.831878 3.60747C0.670488 3.49022 0.753432 3.23494 0.952921 3.23494H3.76032C3.84953 3.23494 3.9286 3.1775 3.95617 3.09265L4.82371 0.422652Z" fill="#F1CC4A"/>
</svg>
