<svg width="10" height="11" viewBox="0 0 10 11" fill="none" xmlns="http://www.w3.org/2000/svg">
<path d="M5.43055 2.89878L5.75455 3.6566C5.77651 3.7225 5.83692 3.76094 5.89733 3.76643L6.72105 3.84331C6.89677 3.85978 6.96267 4.07395 6.83637 4.18927L6.21583 4.73292C6.16641 4.77686 6.14444 4.84275 6.16092 4.90316L6.34214 5.7104C6.38058 5.88064 6.19936 6.01243 6.0456 5.92457L5.3372 5.50173C5.28228 5.46878 5.21089 5.46878 5.15598 5.50173L4.44758 5.92457C4.29931 6.01243 4.1126 5.88064 4.15104 5.7104L4.33226 4.90316C4.34873 4.84275 4.32677 4.77686 4.27734 4.73292L3.65681 4.18927C3.52501 4.07395 3.5964 3.85978 3.77213 3.84331L4.59585 3.76643C4.66175 3.76094 4.71666 3.72249 4.74412 3.66209L5.06812 2.90427C5.13401 2.73952 5.35916 2.73952 5.43055 2.89878Z" stroke="#F0C932" stroke-width="0.549146" stroke-miterlimit="10" stroke-linecap="round" stroke-linejoin="round"/>
<path d="M8.98205 4.50484C8.99624 2.4425 7.33589 0.759137 5.27355 0.744944C3.21122 0.730751 1.52785 2.3911 1.51366 4.45344C1.49947 6.51578 3.15982 8.19914 5.22216 8.21334C7.2845 8.22753 8.96786 6.56718 8.98205 4.50484Z" stroke="#F0C932" stroke-width="0.549146" stroke-miterlimit="10" stroke-linecap="round" stroke-linejoin="round"/>
<path d="M4.73861 8.17607L3.81055 10.5099L2.63538 9.16453L0.861633 9.32927L2.03681 6.38585" stroke="#F0C932" stroke-width="0.549146" stroke-miterlimit="10" stroke-linecap="round" stroke-linejoin="round"/>
<path d="M5.74907 8.17608L6.68262 10.51L7.8523 9.16454L9.63153 9.32929L8.45087 6.38586" stroke="#F0C932" stroke-width="0.549146" stroke-miterlimit="10" stroke-linecap="round" stroke-linejoin="round"/>
</svg>
