<svg width="48" height="7" viewBox="0 0 48 7" fill="none" xmlns="http://www.w3.org/2000/svg">
<path d="M1.29559 2.76385V5.1795H0.481923V2.13319H1.24491L1.29559 2.76385ZM1.18297 3.54936H0.957734C0.957734 3.33726 0.983073 3.14206 1.03375 2.96375C1.08631 2.78356 1.16232 2.62777 1.2618 2.49638C1.36316 2.36312 1.48798 2.25989 1.63626 2.18668C1.78454 2.11348 1.95628 2.07688 2.15148 2.07688C2.28663 2.07688 2.41051 2.09753 2.52312 2.13882C2.63574 2.17824 2.7324 2.24112 2.81311 2.32746C2.8957 2.41192 2.95952 2.52266 3.00456 2.65968C3.04961 2.79482 3.07214 2.95718 3.07214 3.14675V5.1795H2.26129V3.23685C2.26129 3.09795 2.24252 2.99096 2.20498 2.91588C2.16744 2.84081 2.11394 2.78825 2.0445 2.75822C1.97693 2.72819 1.89528 2.71317 1.79955 2.71317C1.69444 2.71317 1.60247 2.73476 1.52364 2.77793C1.44668 2.8211 1.38287 2.88116 1.33219 2.95812C1.28151 3.03319 1.24397 3.12141 1.21957 3.22277C1.19517 3.32412 1.18297 3.43299 1.18297 3.54936ZM2.99612 3.45645L2.70613 3.49305C2.70613 3.29409 2.73053 3.10921 2.77933 2.93841C2.83001 2.7676 2.90415 2.61745 3.00175 2.48794C3.10123 2.35843 3.22417 2.25801 3.37057 2.18668C3.51698 2.11348 3.6859 2.07688 3.87735 2.07688C4.02376 2.07688 4.15702 2.09847 4.27715 2.14164C4.39727 2.18293 4.49957 2.24956 4.58403 2.34153C4.67037 2.43163 4.73607 2.54988 4.78111 2.69628C4.82804 2.84268 4.8515 3.02193 4.8515 3.23403V5.1795H4.03783V3.23403C4.03783 3.09326 4.01906 2.98627 3.98153 2.91307C3.94586 2.83799 3.89331 2.78637 3.82386 2.75822C3.75629 2.72819 3.67558 2.71317 3.58173 2.71317C3.48413 2.71317 3.39873 2.73288 3.32553 2.7723C3.25232 2.80984 3.19132 2.86239 3.14252 2.92996C3.09372 2.99753 3.05712 3.07636 3.03272 3.16646C3.00832 3.25468 2.99612 3.35134 2.99612 3.45645ZM7.12356 4.49254V3.13549C7.12356 3.03789 7.10761 2.95436 7.0757 2.88491C7.04379 2.81359 6.99405 2.75822 6.92648 2.7188C6.86079 2.67939 6.77539 2.65968 6.67028 2.65968C6.58018 2.65968 6.50229 2.67563 6.4366 2.70754C6.3709 2.73757 6.32022 2.78168 6.28456 2.83987C6.2489 2.89618 6.23107 2.96281 6.23107 3.03976H5.42022C5.42022 2.91025 5.45025 2.78731 5.51031 2.67094C5.57038 2.55457 5.65765 2.45227 5.77215 2.36406C5.88664 2.27396 6.02272 2.20358 6.18039 2.1529C6.33993 2.10222 6.51824 2.07688 6.71532 2.07688C6.95182 2.07688 7.16204 2.1163 7.34598 2.19513C7.52993 2.27396 7.67445 2.39221 7.77956 2.54988C7.88655 2.70754 7.94004 2.90462 7.94004 3.14112V4.44467C7.94004 4.61172 7.95037 4.74874 7.97101 4.85573C7.99166 4.96084 8.02169 5.05281 8.06111 5.13164V5.1795H7.24181C7.2024 5.09692 7.17237 4.99368 7.15172 4.86981C7.13295 4.74405 7.12356 4.61829 7.12356 4.49254ZM7.23055 3.32412L7.23618 3.78304H6.7829C6.67591 3.78304 6.583 3.79524 6.50417 3.81964C6.42533 3.84404 6.36058 3.87877 6.3099 3.92381C6.25922 3.96698 6.22168 4.01766 6.19728 4.07585C6.17476 4.13403 6.1635 4.19785 6.1635 4.2673C6.1635 4.33675 6.17945 4.39963 6.21136 4.45593C6.24327 4.51037 6.28925 4.55354 6.34932 4.58544C6.40938 4.61548 6.47977 4.63049 6.56047 4.63049C6.68248 4.63049 6.78853 4.60609 6.87862 4.55729C6.96871 4.50849 7.03816 4.44843 7.08696 4.3771C7.13764 4.30578 7.16392 4.23821 7.1658 4.17439L7.37977 4.51787C7.34974 4.59483 7.30845 4.6746 7.25589 4.75719C7.20521 4.83977 7.14046 4.91767 7.06162 4.99087C6.98279 5.06219 6.88801 5.12132 6.77726 5.16824C6.66652 5.21329 6.53514 5.23581 6.3831 5.23581C6.18977 5.23581 6.01428 5.19734 5.85661 5.12038C5.70082 5.04155 5.57695 4.93362 5.48497 4.7966C5.39488 4.65771 5.34983 4.50004 5.34983 4.32361C5.34983 4.16407 5.37986 4.02236 5.43993 3.89848C5.49999 3.7746 5.58821 3.67042 5.70458 3.58596C5.82283 3.49962 5.97017 3.43487 6.1466 3.3917C6.32304 3.34665 6.52763 3.32412 6.76037 3.32412H7.23055ZM9.35903 2.78356V5.1795H8.54818V2.13319H9.30835L9.35903 2.78356ZM9.24078 3.54936H9.02118C9.02118 3.32412 9.05027 3.12141 9.10846 2.94122C9.16664 2.75916 9.24829 2.60431 9.3534 2.47667C9.45851 2.34716 9.58333 2.24862 9.72785 2.18105C9.87426 2.1116 10.0376 2.07688 10.2177 2.07688C10.3604 2.07688 10.4908 2.09753 10.6091 2.13882C10.7273 2.18011 10.8287 2.24581 10.9132 2.3359C10.9995 2.426 11.0652 2.54518 11.1102 2.69346C11.1572 2.84174 11.1806 3.02287 11.1806 3.23685V5.1795H10.3641V3.23403C10.3641 3.09889 10.3454 2.99378 10.3078 2.9187C10.2703 2.84362 10.2149 2.79107 10.1417 2.76103C10.0704 2.72913 9.98218 2.71317 9.87707 2.71317C9.76821 2.71317 9.67342 2.73476 9.59271 2.77793C9.51388 2.8211 9.44819 2.88116 9.39563 2.95812C9.34495 3.03319 9.30647 3.12141 9.2802 3.22277C9.25392 3.32412 9.24078 3.43299 9.24078 3.54936ZM13.7258 2.13319H14.4606V5.07815C14.4606 5.35594 14.3987 5.5915 14.2748 5.78483C14.1528 5.98003 13.982 6.12737 13.7624 6.22685C13.5428 6.32821 13.2875 6.37889 12.9966 6.37889C12.869 6.37889 12.7338 6.36199 12.5912 6.32821C12.4504 6.29442 12.3153 6.24187 12.1857 6.17054C12.0581 6.09922 11.9511 6.00912 11.8648 5.90026L12.2223 5.42163C12.3162 5.5305 12.4251 5.61496 12.5489 5.67502C12.6728 5.73696 12.8098 5.76793 12.96 5.76793C13.1064 5.76793 13.2303 5.74072 13.3316 5.68628C13.433 5.63373 13.5109 5.55584 13.5653 5.4526C13.6197 5.35125 13.647 5.22831 13.647 5.08378V2.83705L13.7258 2.13319ZM11.6761 3.69295V3.63382C11.6761 3.40108 11.7043 3.18992 11.7606 3.00035C11.8188 2.8089 11.9004 2.64466 12.0056 2.50764C12.1125 2.37063 12.242 2.26458 12.3941 2.1895C12.5461 2.11442 12.7179 2.07688 12.9093 2.07688C13.112 2.07688 13.2819 2.11442 13.4189 2.1895C13.5559 2.26458 13.6685 2.37156 13.7568 2.51046C13.845 2.64748 13.9135 2.80984 13.9623 2.99753C14.013 3.18335 14.0524 3.387 14.0805 3.60848V3.738C14.0524 3.95009 14.0102 4.14717 13.9538 4.32924C13.8975 4.5113 13.8234 4.67085 13.7314 4.80787C13.6394 4.94301 13.525 5.04812 13.3879 5.1232C13.2528 5.19827 13.0914 5.23581 12.9037 5.23581C12.716 5.23581 12.5461 5.19734 12.3941 5.12038C12.2439 5.04342 12.1154 4.9355 12.0084 4.7966C11.9014 4.65771 11.8188 4.49441 11.7606 4.30672C11.7043 4.11902 11.6761 3.91443 11.6761 3.69295ZM12.487 3.63382V3.69295C12.487 3.8187 12.4992 3.93601 12.5236 4.04488C12.548 4.15374 12.5855 4.25041 12.6362 4.33487C12.6888 4.41746 12.7535 4.48221 12.8305 4.52914C12.9093 4.57418 13.0022 4.59671 13.1092 4.59671C13.2575 4.59671 13.3786 4.56574 13.4724 4.5038C13.5662 4.43998 13.6366 4.3527 13.6836 4.24196C13.7305 4.13122 13.7577 4.00359 13.7652 3.85906V3.49024C13.7615 3.37199 13.7455 3.26594 13.7173 3.17209C13.6892 3.07636 13.6498 2.99472 13.5991 2.92715C13.5484 2.85958 13.4827 2.80702 13.402 2.76948C13.3213 2.73194 13.2256 2.71317 13.1148 2.71317C13.0079 2.71317 12.9149 2.73757 12.8361 2.78637C12.7592 2.8333 12.6944 2.89805 12.6418 2.98064C12.5912 3.06323 12.5527 3.16083 12.5264 3.27345C12.5001 3.38419 12.487 3.50431 12.487 3.63382ZM16.3498 4.60234C16.4493 4.60234 16.5375 4.58357 16.6144 4.54603C16.6914 4.50661 16.7515 4.45218 16.7946 4.38273C16.8397 4.31141 16.8631 4.22788 16.865 4.13216H17.628C17.6261 4.34613 17.5689 4.53664 17.4563 4.70369C17.3436 4.86887 17.1925 4.99932 17.003 5.09504C16.8134 5.18889 16.6013 5.23581 16.3667 5.23581C16.1302 5.23581 15.9237 5.1964 15.7473 5.11756C15.5727 5.03873 15.4273 4.92987 15.3109 4.79097C15.1945 4.6502 15.1072 4.4869 15.049 4.30108C14.9909 4.11339 14.9618 3.91255 14.9618 3.69858V3.61693C14.9618 3.40108 14.9909 3.20024 15.049 3.01443C15.1072 2.82673 15.1945 2.66343 15.3109 2.52454C15.4273 2.38376 15.5727 2.27396 15.7473 2.19513C15.9218 2.1163 16.1264 2.07688 16.361 2.07688C16.6107 2.07688 16.8294 2.12474 17.017 2.22047C17.2066 2.31619 17.3549 2.45321 17.4619 2.63152C17.5708 2.80796 17.6261 3.01724 17.628 3.25937H16.865C16.8631 3.15801 16.8416 3.06604 16.8003 2.98346C16.7608 2.90087 16.7027 2.83517 16.6257 2.78637C16.5506 2.7357 16.4577 2.71036 16.347 2.71036C16.2287 2.71036 16.1321 2.7357 16.057 2.78637C15.9819 2.83517 15.9237 2.90275 15.8824 2.98909C15.8411 3.07355 15.812 3.17021 15.7951 3.27908C15.7801 3.38606 15.7726 3.49868 15.7726 3.61693V3.69858C15.7726 3.81683 15.7801 3.93038 15.7951 4.03925C15.8102 4.14811 15.8383 4.24478 15.8796 4.32924C15.9228 4.4137 15.9819 4.48033 16.057 4.52914C16.1321 4.57794 16.2297 4.60234 16.3498 4.60234ZM17.9687 3.68732V3.62819C17.9687 3.40483 18.0006 3.19931 18.0644 3.01161C18.1282 2.82204 18.2211 2.6578 18.3431 2.51891C18.4651 2.38001 18.6153 2.27209 18.7936 2.19513C18.9719 2.1163 19.1765 2.07688 19.4074 2.07688C19.6382 2.07688 19.8438 2.1163 20.0239 2.19513C20.2041 2.27209 20.3552 2.38001 20.4772 2.51891C20.6011 2.6578 20.695 2.82204 20.7588 3.01161C20.8226 3.19931 20.8545 3.40483 20.8545 3.62819V3.68732C20.8545 3.9088 20.8226 4.11433 20.7588 4.3039C20.695 4.4916 20.6011 4.65583 20.4772 4.7966C20.3552 4.9355 20.2051 5.04342 20.0268 5.12038C19.8485 5.19734 19.6439 5.23581 19.413 5.23581C19.1821 5.23581 18.9766 5.19734 18.7964 5.12038C18.6181 5.04342 18.467 4.9355 18.3431 4.7966C18.2211 4.65583 18.1282 4.4916 18.0644 4.3039C18.0006 4.11433 17.9687 3.9088 17.9687 3.68732ZM18.7795 3.62819V3.68732C18.7795 3.81495 18.7908 3.93414 18.8133 4.04488C18.8358 4.15562 18.8715 4.25322 18.9203 4.33769C18.971 4.42027 19.0367 4.48503 19.1174 4.53195C19.1981 4.57888 19.2966 4.60234 19.413 4.60234C19.5256 4.60234 19.6223 4.57888 19.703 4.53195C19.7837 4.48503 19.8485 4.42027 19.8973 4.33769C19.9461 4.25322 19.9817 4.15562 20.0042 4.04488C20.0286 3.93414 20.0408 3.81495 20.0408 3.68732V3.62819C20.0408 3.50431 20.0286 3.38794 20.0042 3.27908C19.9817 3.16834 19.9451 3.07073 19.8944 2.98627C19.8456 2.89993 19.7809 2.83236 19.7002 2.78356C19.6195 2.73476 19.5219 2.71036 19.4074 2.71036C19.2929 2.71036 19.1953 2.73476 19.1146 2.78356C19.0357 2.83236 18.971 2.89993 18.9203 2.98627C18.8715 3.07073 18.8358 3.16834 18.8133 3.27908C18.7908 3.38794 18.7795 3.50431 18.7795 3.62819ZM23.1519 4.51506V0.854977H23.9684V5.1795H23.2336L23.1519 4.51506ZM21.2261 3.69295V3.63382C21.2261 3.40108 21.2524 3.18992 21.305 3.00035C21.3575 2.8089 21.4345 2.64466 21.5358 2.50764C21.6372 2.37063 21.762 2.26458 21.9103 2.1895C22.0586 2.11442 22.2275 2.07688 22.4171 2.07688C22.5954 2.07688 22.7512 2.11442 22.8844 2.1895C23.0196 2.26458 23.1341 2.37156 23.2279 2.51046C23.3237 2.64748 23.4006 2.80984 23.4588 2.99753C23.517 3.18335 23.5592 3.387 23.5855 3.60848V3.738C23.5592 3.95009 23.517 4.14717 23.4588 4.32924C23.4006 4.5113 23.3237 4.67085 23.2279 4.80787C23.1341 4.94301 23.0196 5.04812 22.8844 5.1232C22.7493 5.19827 22.5916 5.23581 22.4114 5.23581C22.2219 5.23581 22.0529 5.19734 21.9047 5.12038C21.7583 5.04342 21.6344 4.9355 21.533 4.7966C21.4335 4.65771 21.3575 4.49441 21.305 4.30672C21.2524 4.11902 21.2261 3.91443 21.2261 3.69295ZM22.037 3.63382V3.69295C22.037 3.8187 22.0464 3.93601 22.0651 4.04488C22.0858 4.15374 22.1186 4.25041 22.1637 4.33487C22.2106 4.41746 22.2707 4.48221 22.3439 4.52914C22.419 4.57418 22.51 4.59671 22.617 4.59671C22.7559 4.59671 22.8704 4.56574 22.9605 4.5038C23.0506 4.43998 23.1191 4.3527 23.166 4.24196C23.2148 4.13122 23.2429 4.00359 23.2504 3.85906V3.49024C23.2448 3.37199 23.2279 3.26594 23.1998 3.17209C23.1735 3.07636 23.1341 2.99472 23.0815 2.92715C23.0308 2.85958 22.967 2.80702 22.8901 2.76948C22.815 2.73194 22.7258 2.71317 22.6226 2.71317C22.5175 2.71317 22.4274 2.73757 22.3523 2.78637C22.2772 2.8333 22.2162 2.89805 22.1693 2.98064C22.1243 3.06323 22.0905 3.16083 22.068 3.27345C22.0473 3.38419 22.037 3.50431 22.037 3.63382ZM25.4578 2.13319V5.1795H24.6441V2.13319H25.4578ZM24.5934 1.33923C24.5934 1.22098 24.6347 1.12338 24.7173 1.04643C24.7999 0.969472 24.9106 0.930994 25.0495 0.930994C25.1865 0.930994 25.2963 0.969472 25.3789 1.04643C25.4634 1.12338 25.5056 1.22098 25.5056 1.33923C25.5056 1.45748 25.4634 1.55508 25.3789 1.63204C25.2963 1.709 25.1865 1.74747 25.0495 1.74747C24.9106 1.74747 24.7999 1.709 24.7173 1.63204C24.6347 1.55508 24.5934 1.45748 24.5934 1.33923ZM26.9218 2.78356V5.1795H26.1109V2.13319H26.8711L26.9218 2.78356ZM26.8035 3.54936H26.5839C26.5839 3.32412 26.613 3.12141 26.6712 2.94122C26.7294 2.75916 26.8111 2.60431 26.9162 2.47667C27.0213 2.34716 27.1461 2.24862 27.2906 2.18105C27.437 2.1116 27.6003 2.07688 27.7805 2.07688C27.9232 2.07688 28.0536 2.09753 28.1719 2.13882C28.2901 2.18011 28.3915 2.24581 28.4759 2.3359C28.5623 2.426 28.628 2.54518 28.673 2.69346C28.7199 2.84174 28.7434 3.02287 28.7434 3.23685V5.1795H27.9269V3.23403C27.9269 3.09889 27.9081 2.99378 27.8706 2.9187C27.8331 2.84362 27.7777 2.79107 27.7045 2.76103C27.6332 2.72913 27.5449 2.71317 27.4398 2.71317C27.331 2.71317 27.2362 2.73476 27.1555 2.77793C27.0766 2.8211 27.0109 2.88116 26.9584 2.95812C26.9077 3.03319 26.8692 3.12141 26.843 3.22277C26.8167 3.32412 26.8035 3.43299 26.8035 3.54936ZM31.2886 2.13319H32.0234V5.07815C32.0234 5.35594 31.9614 5.5915 31.8376 5.78483C31.7156 5.98003 31.5448 6.12737 31.3252 6.22685C31.1055 6.32821 30.8503 6.37889 30.5594 6.37889C30.4317 6.37889 30.2966 6.36199 30.1539 6.32821C30.0132 6.29442 29.878 6.24187 29.7485 6.17054C29.6209 6.09922 29.5139 6.00912 29.4275 5.90026L29.7851 5.42163C29.879 5.5305 29.9878 5.61496 30.1117 5.67502C30.2356 5.73696 30.3726 5.76793 30.5228 5.76793C30.6692 5.76793 30.793 5.74072 30.8944 5.68628C30.9957 5.63373 31.0736 5.55584 31.1281 5.4526C31.1825 5.35125 31.2097 5.22831 31.2097 5.08378V2.83705L31.2886 2.13319ZM29.2389 3.69295V3.63382C29.2389 3.40108 29.2671 3.18992 29.3234 3.00035C29.3816 2.8089 29.4632 2.64466 29.5683 2.50764C29.6753 2.37063 29.8048 2.26458 29.9568 2.1895C30.1089 2.11442 30.2806 2.07688 30.4721 2.07688C30.6748 2.07688 30.8447 2.11442 30.9817 2.1895C31.1187 2.26458 31.2313 2.37156 31.3195 2.51046C31.4077 2.64748 31.4762 2.80984 31.5251 2.99753C31.5757 3.18335 31.6151 3.387 31.6433 3.60848V3.738C31.6151 3.95009 31.5729 4.14717 31.5166 4.32924C31.4603 4.5113 31.3862 4.67085 31.2942 4.80787C31.2022 4.94301 31.0877 5.04812 30.9507 5.1232C30.8156 5.19827 30.6541 5.23581 30.4664 5.23581C30.2787 5.23581 30.1089 5.19734 29.9568 5.12038C29.8067 5.04342 29.6781 4.9355 29.5711 4.7966C29.4641 4.65771 29.3816 4.49441 29.3234 4.30672C29.2671 4.11902 29.2389 3.91443 29.2389 3.69295ZM30.0498 3.63382V3.69295C30.0498 3.8187 30.062 3.93601 30.0864 4.04488C30.1108 4.15374 30.1483 4.25041 30.199 4.33487C30.2515 4.41746 30.3163 4.48221 30.3932 4.52914C30.4721 4.57418 30.565 4.59671 30.672 4.59671C30.8203 4.59671 30.9413 4.56574 31.0352 4.5038C31.129 4.43998 31.1994 4.3527 31.2463 4.24196C31.2932 4.13122 31.3205 4.00359 31.328 3.85906V3.49024C31.3242 3.37199 31.3083 3.26594 31.2801 3.17209C31.252 3.07636 31.2125 2.99472 31.1619 2.92715C31.1112 2.85958 31.0455 2.80702 30.9648 2.76948C30.8841 2.73194 30.7883 2.71317 30.6776 2.71317C30.5706 2.71317 30.4777 2.73757 30.3989 2.78637C30.3219 2.8333 30.2572 2.89805 30.2046 2.98064C30.1539 3.06323 30.1155 3.16083 30.0892 3.27345C30.0629 3.38419 30.0498 3.50431 30.0498 3.63382ZM36.2747 4.10682C36.2747 4.03362 36.2634 3.96792 36.2409 3.90974C36.2203 3.84967 36.1809 3.79524 36.1227 3.74644C36.0645 3.69576 35.9828 3.64602 35.8777 3.59722C35.7726 3.54842 35.6365 3.49774 35.4695 3.44519C35.2837 3.38513 35.1072 3.31755 34.9402 3.24248C34.775 3.1674 34.6286 3.08012 34.501 2.98064C34.3752 2.87928 34.2757 2.76197 34.2025 2.62871C34.1312 2.49544 34.0956 2.34059 34.0956 2.16416C34.0956 1.99336 34.1331 1.83851 34.2082 1.69961C34.2832 1.55884 34.3884 1.43871 34.5235 1.33923C34.6586 1.23788 34.8182 1.15998 35.0021 1.10555C35.1879 1.05112 35.3916 1.0239 35.6131 1.0239C35.9153 1.0239 36.179 1.07834 36.4042 1.1872C36.6295 1.29606 36.804 1.44528 36.9279 1.63486C37.0536 1.82443 37.1165 2.04122 37.1165 2.28522H36.2775C36.2775 2.1651 36.2522 2.05999 36.2015 1.96989C36.1527 1.87792 36.0776 1.80566 35.9763 1.7531C35.8768 1.70055 35.751 1.67427 35.599 1.67427C35.4526 1.67427 35.3306 1.6968 35.233 1.74184C35.1354 1.78501 35.0622 1.84414 35.0134 1.91922C34.9646 1.99242 34.9402 2.075 34.9402 2.16698C34.9402 2.23642 34.9571 2.2993 34.9909 2.35561C35.0265 2.41192 35.0791 2.46447 35.1485 2.51328C35.218 2.56208 35.3034 2.60806 35.4047 2.65123C35.5061 2.6944 35.6234 2.73663 35.7567 2.77793C35.98 2.8455 36.1762 2.92152 36.3451 3.00598C36.5159 3.09044 36.6585 3.18523 36.773 3.29034C36.8875 3.39545 36.9739 3.51464 37.0321 3.6479C37.0902 3.78117 37.1193 3.93226 37.1193 4.10119C37.1193 4.2795 37.0846 4.43904 37.0152 4.57981C36.9457 4.72059 36.8453 4.83977 36.7139 4.93738C36.5825 5.03498 36.4258 5.10912 36.2437 5.1598C36.0617 5.21047 35.858 5.23581 35.6328 5.23581C35.4301 5.23581 35.2302 5.20954 35.0331 5.15698C34.836 5.10255 34.6568 5.0209 34.4953 4.91204C34.3358 4.80317 34.2082 4.66428 34.1124 4.49535C34.0167 4.32642 33.9689 4.12653 33.9689 3.89566H34.8163C34.8163 4.02329 34.836 4.13122 34.8754 4.21944C34.9148 4.30765 34.9702 4.37898 35.0415 4.43341C35.1147 4.48784 35.2011 4.52726 35.3006 4.55166C35.4019 4.57606 35.5127 4.58826 35.6328 4.58826C35.7792 4.58826 35.8993 4.56761 35.9932 4.52632C36.0889 4.48503 36.1593 4.42778 36.2043 4.35458C36.2512 4.28138 36.2747 4.19879 36.2747 4.10682ZM39.1352 2.13319V2.70754H37.3615V2.13319H39.1352ZM37.8007 1.38147H38.6115V4.26167C38.6115 4.34989 38.6228 4.41746 38.6453 4.46438C38.6697 4.5113 38.7054 4.54415 38.7523 4.56292C38.7992 4.57981 38.8584 4.58826 38.9297 4.58826C38.9804 4.58826 39.0254 4.58638 39.0648 4.58263C39.1061 4.577 39.1408 4.57137 39.169 4.56574L39.1718 5.16261C39.1024 5.18514 39.0273 5.20297 38.9466 5.21611C38.8659 5.22924 38.7767 5.23581 38.6791 5.23581C38.5008 5.23581 38.345 5.20672 38.2117 5.14853C38.0804 5.08847 37.979 4.99275 37.9077 4.86136C37.8363 4.72997 37.8007 4.55729 37.8007 4.34332V1.38147ZM39.3942 3.68732V3.62819C39.3942 3.40483 39.4261 3.19931 39.4899 3.01161C39.5538 2.82204 39.6467 2.6578 39.7687 2.51891C39.8907 2.38001 40.0408 2.27209 40.2192 2.19513C40.3975 2.1163 40.6021 2.07688 40.8329 2.07688C41.0638 2.07688 41.2693 2.1163 41.4495 2.19513C41.6297 2.27209 41.7808 2.38001 41.9028 2.51891C42.0267 2.6578 42.1205 2.82204 42.1843 3.01161C42.2481 3.19931 42.2801 3.40483 42.2801 3.62819V3.68732C42.2801 3.9088 42.2481 4.11433 42.1843 4.3039C42.1205 4.4916 42.0267 4.65583 41.9028 4.7966C41.7808 4.9355 41.6306 5.04342 41.4523 5.12038C41.274 5.19734 41.0694 5.23581 40.8385 5.23581C40.6077 5.23581 40.4022 5.19734 40.222 5.12038C40.0437 5.04342 39.8926 4.9355 39.7687 4.7966C39.6467 4.65583 39.5538 4.4916 39.4899 4.3039C39.4261 4.11433 39.3942 3.9088 39.3942 3.68732ZM40.2051 3.62819V3.68732C40.2051 3.81495 40.2163 3.93414 40.2389 4.04488C40.2614 4.15562 40.297 4.25322 40.3458 4.33769C40.3965 4.42027 40.4622 4.48503 40.5429 4.53195C40.6236 4.57888 40.7222 4.60234 40.8385 4.60234C40.9512 4.60234 41.0478 4.57888 41.1285 4.53195C41.2092 4.48503 41.274 4.42027 41.3228 4.33769C41.3716 4.25322 41.4073 4.15562 41.4298 4.04488C41.4542 3.93414 41.4664 3.81495 41.4664 3.68732V3.62819C41.4664 3.50431 41.4542 3.38794 41.4298 3.27908C41.4073 3.16834 41.3707 3.07073 41.32 2.98627C41.2712 2.89993 41.2064 2.83236 41.1257 2.78356C41.045 2.73476 40.9474 2.71036 40.8329 2.71036C40.7184 2.71036 40.6208 2.73476 40.5401 2.78356C40.4613 2.83236 40.3965 2.89993 40.3458 2.98627C40.297 3.07073 40.2614 3.16834 40.2389 3.27908C40.2163 3.38794 40.2051 3.50431 40.2051 3.62819ZM43.5892 2.79764V5.1795H42.7784V2.13319H43.5414L43.5892 2.79764ZM44.5071 2.11348L44.493 2.86521C44.4536 2.85958 44.4057 2.85488 44.3494 2.85113C44.295 2.8455 44.2452 2.84268 44.2002 2.84268C44.0857 2.84268 43.9862 2.8577 43.9018 2.88773C43.8192 2.91588 43.7497 2.95812 43.6934 3.01443C43.639 3.07073 43.5977 3.13924 43.5695 3.21995C43.5433 3.30066 43.5282 3.39263 43.5245 3.49587L43.3612 3.44519C43.3612 3.24811 43.3809 3.06698 43.4203 2.90181C43.4597 2.73476 43.517 2.58929 43.5921 2.46541C43.669 2.34153 43.7629 2.24581 43.8736 2.17824C43.9843 2.11067 44.111 2.07688 44.2537 2.07688C44.2987 2.07688 44.3447 2.08063 44.3916 2.08814C44.4386 2.09377 44.477 2.10222 44.5071 2.11348ZM46.2358 5.23581C45.9993 5.23581 45.7872 5.19827 45.5995 5.1232C45.4118 5.04624 45.2522 4.94019 45.1208 4.80505C44.9913 4.66991 44.8919 4.51318 44.8224 4.33487C44.753 4.15468 44.7182 3.96323 44.7182 3.76052V3.6479C44.7182 3.41703 44.7511 3.20588 44.8168 3.01443C44.8825 2.82297 44.9763 2.65686 45.0983 2.51609C45.2222 2.37532 45.3724 2.26739 45.5488 2.19231C45.7252 2.11536 45.9242 2.07688 46.1457 2.07688C46.3615 2.07688 46.553 2.11254 46.72 2.18387C46.8871 2.25519 47.0269 2.35655 47.1395 2.48794C47.254 2.61932 47.3404 2.77699 47.3985 2.96093C47.4567 3.143 47.4858 3.34571 47.4858 3.56907V3.90692H45.0645V3.36636H46.6891V3.30442C46.6891 3.1918 46.6684 3.09138 46.6271 3.00316C46.5877 2.91307 46.5276 2.84174 46.4469 2.78919C46.3662 2.73663 46.263 2.71036 46.1372 2.71036C46.0302 2.71036 45.9383 2.73382 45.8613 2.78074C45.7844 2.82767 45.7215 2.89336 45.6727 2.97782C45.6258 3.06229 45.5901 3.16177 45.5657 3.27626C45.5432 3.38888 45.5319 3.51276 45.5319 3.6479V3.76052C45.5319 3.88252 45.5488 3.99514 45.5826 4.09837C45.6182 4.20161 45.668 4.29076 45.7318 4.36584C45.7975 4.44092 45.8763 4.4991 45.9683 4.5404C46.0621 4.58169 46.1682 4.60234 46.2864 4.60234C46.4328 4.60234 46.5689 4.57418 46.6947 4.51787C46.8223 4.45969 46.9321 4.37241 47.0241 4.25604L47.4183 4.68399C47.3544 4.77596 47.2672 4.86417 47.1564 4.94864C47.0476 5.0331 46.9162 5.10255 46.7623 5.15698C46.6083 5.20954 46.4328 5.23581 46.2358 5.23581Z" fill="#545BE8"/>
</svg>
